<?xml version="1.0" encoding="UTF-8" standalone="no"?>
<!-- Created with Inkscape (http://www.inkscape.org/) -->

<svg
   xmlns:dc="http://purl.org/dc/elements/1.1/"
   xmlns:cc="http://creativecommons.org/ns#"
   xmlns:rdf="http://www.w3.org/1999/02/22-rdf-syntax-ns#"
   xmlns:svg="http://www.w3.org/2000/svg"
   xmlns="http://www.w3.org/2000/svg"
   xmlns:sodipodi="http://sodipodi.sourceforge.net/DTD/sodipodi-0.dtd"
   xmlns:inkscape="http://www.inkscape.org/namespaces/inkscape"
   width="744.09448819"
   height="1052.3622047"
   id="svg2"
   version="1.1"
   inkscape:version="0.48.4 r9939"
   sodipodi:docname="New document 1">
  <defs
     id="defs4" />
  <sodipodi:namedview
     id="base"
     pagecolor="#ffffff"
     bordercolor="#666666"
     borderopacity="1.0"
     inkscape:pageopacity="0.0"
     inkscape:pageshadow="2"
     inkscape:zoom="0.7"
     inkscape:cx="137.68154"
     inkscape:cy="690.70515"
     inkscape:document-units="px"
     inkscape:current-layer="layer1"
     showgrid="false"
     inkscape:window-width="1366"
     inkscape:window-height="745"
     inkscape:window-x="-8"
     inkscape:window-y="-8"
     inkscape:window-maximized="1" />
  <metadata
     id="metadata7">
    <rdf:RDF>
      <cc:Work
         rdf:about="">
        <dc:format>image/svg+xml</dc:format>
        <dc:type
           rdf:resource="http://purl.org/dc/dcmitype/StillImage" />
        <dc:title></dc:title>
      </cc:Work>
    </rdf:RDF>
  </metadata>
  <g
     inkscape:label="Layer 1"
     inkscape:groupmode="layer"
     id="layer1">
    <g
       id="g3022"
       transform="matrix(2.895649,0,0,3.1193241,-672.85229,-1095.7686)"
       style="fill:#000000">
      <path
         style="fill:#000000"
         d="m 368.27085,647.11513 c 3.03003,-1.43141 2.42551,2.11393 0,0 z M 323.6999,638.9693 c -10.21406,-1.66715 -1.77114,-27.53227 -13.87865,-13.26585 -13.79829,6.64443 -24.3558,-6.95054 -33.06894,-15.49991 -10.44625,-10.16503 -21.6834,-19.80684 -30.45065,-31.48201 -7.33168,-9.62501 18.02434,-24.94066 0.80357,-24.01681 -14.63366,-4.19616 -13.23447,-21.08424 -13.14694,-33.10954 -0.40806,-13.34175 -0.72002,-26.68617 -1.09676,-40.0288 1.34902,-10.48739 14.22383,-12.01174 18.64047,-16.4862 -9.03151,-11.71877 1.4921,-21.36591 9.73472,-29.39851 11.10708,-11.97337 22.89663,-23.28465 34.2633,-35.00677 8.782,-4.39906 21.83164,13.45208 21.53227,-1.35054 6.67605,-13.17467 23.08041,-10.69842 35.35602,-10.93533 14.6558,-0.13189 29.83724,-2.32145 44.14043,1.31403 5.66386,4.46725 7.16395,20.75908 16.04356,9.95857 14.25568,-3.70167 23.49642,10.32205 32.4257,18.8361 9.6115,12.38254 31.95469,21.4124 27.74616,39.904 -6.54312,6.30272 -6.02247,12.79158 3.99794,11.04744 16.23472,7.24404 9.52733,28.65794 11.58052,42.69604 -0.91617,13.50537 5.82817,33.86452 -8.8818,41.73429 -5.59732,3.78895 -22.27437,-1.42965 -11.43664,7.65912 12.5437,9.94179 0.80194,24.50124 -7.71235,32.49648 -11.60793,10.50713 -21.04108,23.37276 -33.41147,32.92724 -8.00313,9.42352 -18.10402,-6.22693 -23.21898,-2.14918 0.0495,17.77523 -21.8767,17.03003 -34.59499,16.81863 -14.44397,-1.15097 -30.63331,2.60124 -44.06957,-1.67786 -0.43231,-0.32821 -0.86461,-0.65642 -1.29692,-0.98463 z m 70.99436,-7.66217 c 9.04298,-12.25515 -1.94898,-23.69393 -10.88029,-31.49995 -19.49288,-20.16002 -38.84708,-40.46244 -58.88282,-60.08788 -0.36177,29.20045 -1.13467,58.62898 1.5419,87.67727 9.06497,12.54125 27.69507,2.99197 40.86757,6.27037 8.74214,-1.31795 20.15992,2.88696 27.35364,-2.35981 z m -86.09428,-13.4523 c 12.98769,-5.9232 7.92429,-20.80642 9.05509,-31.95743 0.35288,-26.4756 0.93062,-52.95735 0.36307,-79.43433 -21.70225,19.50416 -41.70397,40.78678 -61.54189,62.15418 -2.6473,16.64979 18.06017,24.12128 26.01396,36.25875 6.31839,6.95203 15.29218,20.56689 26.10977,12.97883 z m 114.04267,1.57903 c 15.36268,-13.42655 29.9361,-27.77754 43.33939,-43.16728 1.05342,-13.54991 -12.52324,-24.36882 -25.51859,-21.33669 -30.98443,-0.61686 -61.9754,-0.75763 -92.96343,-1.1007 23.03608,22.1797 45.13382,45.38417 69.41892,66.22907 1.83269,0.96541 4.08367,0.47367 5.72371,-0.6244 z M 280.40137,532.98788 c 19.85912,-19.41499 39.65798,-38.89146 59.46288,-58.36172 -30.86761,0.51672 -61.74694,0.53932 -92.60158,1.67032 -10.98836,12.86327 -3.41332,31.36101 -5.97559,46.6609 -3.66968,13.30412 2.04341,29.5737 18.42933,25.90942 8.95544,0.005 13.92377,-11.20959 20.68496,-15.87892 z m 82.43198,14.80494 c -6.3121,-4.6944 -13.81041,-18.15639 -18.94099,-17.54995 -1.6901,12.64899 5.1699,22.86525 18.94099,17.54995 z m 106.56193,-0.90711 c 18.25212,-3.62777 7.70742,-27.25481 10.84423,-40.20048 -1.39595,-11.59339 6.52026,-32.12134 -12.08775,-31.96699 -12.61652,-3.52084 -18.61844,11.31463 -27.69831,17.52198 -18.99288,18.13347 -37.79065,36.48008 -56.0002,55.4034 28.31256,0.7087 56.64279,0.25779 84.94203,-0.75791 z m -92.06754,-1.52998 c 12.95297,-6.61868 -0.99335,-9.98959 -8.39585,-8.41802 -17.32206,-2.40489 3.32372,13.62415 8.39585,8.41802 z M 339.01288,531.7193 c -1.76829,-6.30721 4.62408,-27.05439 -6.84489,-14.11834 -13.18706,5.87553 0.21206,27.56714 7.3463,25.10128 -0.13437,-3.6624 -0.32039,-7.32263 -0.50141,-10.98294 z m 51.98714,-0.80956 c 8.84396,-3.19636 6.85984,-29.99188 -2.05363,-14.96804 -4.12642,3.27243 -14.65107,15.45411 -9.24287,3.52994 2.09305,-15.34036 -13.25084,-26.43202 -27.52992,-22.95243 -13.33308,-1.2593 -34.1465,0.76304 -27.67569,19.60373 2.11138,4.38916 11.17683,-10.47443 16.8715,-13.0786 12.40532,-10.49656 -2.57658,10.36566 2.16047,17.61854 4.83862,8.57648 15.34213,14.77849 25.63887,12.2185 7.29917,-0.0124 14.79288,0.31436 21.83127,-1.97164 z m 43.55763,-43.1516 c 8.27515,-12.94842 32.2633,-23.28355 27.95182,-39.65123 -6.86337,-9.75304 -16.70983,-16.89017 -24.54094,-25.85219 -5.57939,-5.60989 -11.15878,-11.21977 -16.73817,-16.82965 -15.62057,0.23079 -20.75357,15.2746 -18.18488,28.35233 -0.0878,27.63353 -0.85305,55.26037 -0.88424,82.89433 7.30338,2.84119 13.44782,-12.9001 20.58897,-16.79197 3.9478,-4.02885 7.88224,-8.07076 11.80744,-12.12162 z m -45.55927,24.23063 c 13.07284,-4.6868 2.15585,-29.28874 -5.86626,-23.87202 0.80191,8.48596 -5.36365,25.8108 1.34783,28.43019 1.63603,-1.38622 3.06276,-2.99099 4.51843,-4.55817 z M 377.8412,489.6152 c 7.20953,-15.38349 -22.10911,-18.81288 -23.6605,-12.52206 8.04086,4.00139 16.61774,24.56136 23.7336,19.34276 0.0842,-2.2738 -0.0147,-4.54795 -0.0731,-6.8207 z m -15.84118,2.73146 c -3.31974,-15.96969 -31.23896,-11.95375 -29.10587,-0.5234 9.67567,0.35449 19.48706,2.60093 29.10587,0.5234 z m 33.55101,-46.87736 c -0.23021,-14.75 -0.46042,-29.5 -0.69063,-44.25 -10.82014,-8.36486 -25.50416,-2.94534 -38.03048,-4.99185 -13.03897,-0.5392 -37.80029,-4.47358 -34.23586,16.24278 3.46134,9.91383 13.8245,15.82213 20.24483,24.01424 17.26822,17.9449 34.56406,35.87508 52.53195,53.12505 0.88994,-14.70006 0.23197,-29.42818 0.18019,-44.14022 z m -28.55101,23.33252 c -19.93859,-21.01247 -40.75826,-41.188 -62.36899,-60.47617 -16.43154,2.05786 -23.71108,19.44104 -35.9864,28.33749 -10.71386,6.28077 -23.3558,27.00155 -5.22015,31.7747 34.47033,-0.41797 69.17131,1.98517 103.57554,0.36398 z"
         id="path3036"
         inkscape:connector-curvature="0" />
      <path
         style="fill:#000000"
         d="m 327.45044,639.35292 c -12.46279,-0.54655 -4.2926,-31.74909 -17.06051,-15.56174 -14.12901,7.52859 -24.97537,-7.43317 -34.03868,-16.0096 -10.25688,-9.75559 -21.60612,-18.88149 -29.25718,-30.9266 -5.64869,-9.65997 21.83936,-25.05494 1.74575,-22.7421 -15.87776,-3.83744 -14.02819,-22.21616 -14.01418,-34.85708 -0.49093,-14.57219 -2.04012,-29.54681 1.2532,-43.83846 5.06057,-6.6021 22.98302,-5.27959 12.37474,-16.89314 -0.68079,-16.1236 16.87401,-24.28489 25.35622,-35.88679 10.38988,-6.73116 17.18006,-27.09691 31.84509,-20.91293 6.48027,2.89868 11.52472,7.68974 11.3774,-2.40012 6.67605,-13.17467 23.08041,-10.69842 35.35602,-10.93533 14.6558,-0.13189 29.83724,-2.32145 44.14043,1.31403 5.66386,4.46725 7.16395,20.75908 16.04356,9.95857 14.25568,-3.70167 23.49642,10.32205 32.4257,18.8361 9.6115,12.38254 31.95469,21.4124 27.74616,39.904 -6.54312,6.30272 -6.02247,12.79158 3.99794,11.04744 16.23472,7.24404 9.52733,28.65794 11.58052,42.69604 -0.91617,13.50537 5.82817,33.86452 -8.8818,41.73429 -5.59732,3.78895 -22.27437,-1.42965 -11.43664,7.65912 12.5437,9.94179 0.80194,24.50124 -7.71235,32.49648 -11.58351,10.50329 -21.02485,23.32643 -33.36294,32.89123 -9.50248,8.48859 -17.88981,-3.55446 -24.09975,-6.34801 3.01147,16.99696 -16.50633,20.8148 -29.23923,19.26102 -15.37373,-0.19982 -30.84431,1.87067 -46.13947,-0.48642 z m 65.00392,-5.05009 c 12.67577,-7.59043 7.27249,-25.18724 -4.26265,-30.66087 -21.82106,-21.9222 -43.76749,-43.74826 -64.45882,-66.75349 -0.99694,30.73478 0.0905,61.4808 0.20148,92.21972 10.42815,9.98197 26.24201,4.05984 39.10504,6.29387 9.80659,0.22076 19.70882,0.63476 29.41495,-1.09923 z M 311.84777,617.1745 c 13.24478,-9.47128 4.2594,-27.96091 7.35215,-41.46666 0.35357,-24.82875 0.57966,-49.65905 0.8725,-74.48854 -22.30464,23.00769 -45.59373,45.095 -66.68749,69.25 3.45335,16.62646 20.64501,24.85374 30.07906,37.82459 6.87936,8.25867 18.07663,19.40775 28.38378,8.88061 z m 110.79488,2.25936 c 15.36268,-13.42655 29.9361,-27.77754 43.33939,-43.16728 1.05342,-13.54991 -12.52324,-24.36882 -25.51859,-21.33669 -30.98443,-0.61686 -61.9754,-0.75763 -92.96343,-1.1007 23.03608,22.1797 45.13382,45.38417 69.41892,66.22907 1.83269,0.96541 4.08367,0.47367 5.72371,-0.6244 z M 281.93696,533.45879 c 20.04841,-18.81866 38.4253,-39.75474 59.88555,-56.86454 7.46129,-4.71012 21.0345,10.33125 17.14486,8.89943 -9.20596,-12.45024 -26.99609,-3.13133 -31.36073,8.22193 16.14666,0.86246 -8.95316,3.15484 -5.46388,13.33093 -1.18292,7.26172 0.77411,21.54 6.3597,8.29911 3.35792,-5.43308 17.24362,-17.0253 18.14367,-13.77454 -8.5226,11.16589 -1.0717,29.3058 12.40235,31.48561 11.88885,-1.72064 25.79319,2.97887 35.99868,-5.0861 3.32637,-6.78082 1.58208,-25.17964 -7.21198,-10.97019 -3.44243,4.28009 -15.24111,12.60719 -6.87848,2.85914 10.37125,-7.15307 21.35527,-22.78214 6.85935,-31.91237 -9.67641,-10.06435 -5.84423,20.20375 -8.01725,5.73549 1.96866,-14.87722 -10.09908,-23.9936 -24.13536,-19.8789 -36.45675,0.42328 -72.92931,0.4319 -109.36109,2.01033 -10.41961,12.17159 -3.63919,29.66349 -5.90376,44.16534 -3.47543,13.78274 1.51012,36.06073 20.34102,29.97232 8.98692,-2.53346 14.95674,-10.11045 21.19735,-16.49299 z m 80.89639,14.33403 c -6.3121,-4.6944 -13.81041,-18.15639 -18.94099,-17.54995 -1.6901,12.64899 5.1699,22.86525 18.94099,17.54995 z m 106.56193,-0.90711 c 18.25212,-3.62777 7.70742,-27.25481 10.84423,-40.20048 -1.39595,-11.59339 6.52026,-32.12134 -12.08775,-31.96699 -12.61652,-3.52084 -18.61844,11.31463 -27.69831,17.52198 -18.99288,18.13347 -37.79065,36.48008 -56.0002,55.4034 28.31256,0.7087 56.64279,0.25779 84.94203,-0.75791 z m -92.06754,-1.52998 c 12.95297,-6.61868 -0.99335,-9.98959 -8.39585,-8.41802 -17.32206,-2.40489 3.32372,13.62415 8.39585,8.41802 z M 339.01288,531.7193 c -1.76829,-6.30721 4.62408,-27.05439 -6.84489,-14.11834 -13.18706,5.87553 0.21206,27.56714 7.3463,25.10128 -0.13437,-3.6624 -0.32039,-7.32263 -0.50141,-10.98294 z m 95.54477,-43.96116 c 8.27515,-12.94842 32.2633,-23.28355 27.95182,-39.65123 -6.86337,-9.75304 -16.70983,-16.89017 -24.54094,-25.85219 -5.57939,-5.60989 -11.15878,-11.21977 -16.73817,-16.82965 -15.62057,0.23079 -20.75357,15.2746 -18.18488,28.35233 -0.0878,27.63353 -0.85305,55.26037 -0.88424,82.89433 7.30338,2.84119 13.44782,-12.9001 20.58897,-16.79197 3.9478,-4.02885 7.88224,-8.07076 11.80744,-12.12162 z M 395.55103,445.4693 c -0.23021,-14.75 -0.46042,-29.5 -0.69063,-44.25 -10.82014,-8.36486 -25.50416,-2.94534 -38.03048,-4.99185 -13.03897,-0.5392 -37.80029,-4.47358 -34.23586,16.24278 3.46134,9.91383 13.8245,15.82213 20.24483,24.01424 17.26822,17.9449 34.56406,35.87508 52.53195,53.12505 0.88994,-14.70006 0.23197,-29.42818 0.18019,-44.14022 z m -28.83601,23.62363 c -19.17641,-21.06113 -39.83923,-40.705 -60.86116,-59.90266 -17.95706,-0.73656 -25.57033,20.1676 -38.75394,29.1322 -13.88701,6.46934 -19.34557,30.37785 1.0551,30.69835 31.90464,0.88538 63.9173,0.042 95.84929,1.45167 1.03534,-0.30893 1.98854,-0.50458 2.71071,-1.37956 z"
         id="path3034"
         inkscape:connector-curvature="0" />
      <path
         style="fill:#000000"
         d="m 327.45044,639.35292 c -12.46279,-0.54655 -4.2926,-31.74909 -17.06051,-15.56174 -14.12901,7.52859 -24.97537,-7.43317 -34.03868,-16.0096 -10.25688,-9.75559 -21.60612,-18.88149 -29.25718,-30.9266 -5.64869,-9.65997 21.83936,-25.05494 1.74575,-22.7421 -15.87776,-3.83744 -14.02819,-22.21616 -14.01418,-34.85708 -0.49093,-14.57219 -2.04012,-29.54681 1.2532,-43.83846 5.06057,-6.6021 22.98302,-5.27959 12.37474,-16.89314 -0.68079,-16.1236 16.87401,-24.28489 25.35622,-35.88679 10.4021,-6.77599 17.26473,-27.18983 31.97598,-20.86632 7.25099,3.69312 12.22397,7.74689 12.70284,-3.05888 11.18651,-14.40745 31.93871,-7.2573 47.55565,-9.55218 12.79563,0.38909 35.21902,-4.53348 36.12997,14.18805 4.52325,8.32388 13.80345,-10.23898 21.70063,-1.5374 13.41797,9.57789 24.33784,22.30204 36.80105,33.11603 12.91486,8.82649 14.04631,22.76808 4.74152,33.8362 14.77963,-0.7931 23.91242,12.35107 20.98045,26.92422 -0.98769,16.87003 1.93645,35.36504 -1.26762,51.21839 -6.64656,10.79152 -20.46526,5.39633 -30.88688,6.87323 -32.40598,0.0512 -64.82907,-1.51689 -97.21489,-0.99803 -11.12315,2.05532 -19.01893,-13.0699 -15.57602,-18.01483 -3.37018,12.89554 18.02148,22.26511 22.98216,11.17442 -3.33254,-1.99375 -14.69098,-16.54537 -6.21299,-7.93337 5.57857,11.0675 24.93,12.59615 28.56882,-0.83049 -5.75654,-0.34858 -27.54266,-2.84732 -10.63517,-2.73823 13.02557,4.70706 31.21223,-13.80104 18.12272,-22.72647 -5.09781,1.27531 -15.11292,16.57363 -15.71192,11.1635 9.38657,-8.78482 25.28518,-23.61651 9.70293,-34.78882 -10.05711,-10.14271 -6.47846,20.89761 -8.53925,4.86997 2.11151,-15.16621 -11.08725,-22.8789 -24.7047,-19.14558 -36.24398,0.42062 -72.50377,0.4293 -108.72276,2.0033 -10.47327,12.36895 -3.60613,30.03747 -5.87597,44.72355 -3.97614,15.17869 2.44592,33.91306 21.28664,29.82227 9.63163,-3.35383 15.35251,-13.5283 23.22858,-19.87138 18.23861,-18.07724 36.58454,-36.17517 55.41337,-53.55943 6.81482,-6.37745 23.16103,10.23894 18.1932,8.15026 -9.23074,-12.03154 -26.77228,-2.43621 -30.78602,8.69706 16.07023,0.50206 -10.53451,4.56981 -5.89543,15.09554 0.54698,7.03684 -0.40952,21.96063 5.853,9.42046 6.71247,-7.51682 5.53202,-2.10836 0.13309,2.05887 -12.22871,12.49368 8.11637,21.06169 14.60201,30.09896 23.33886,23.3044 46.70031,46.60911 71.10656,68.80439 15.50439,6.56728 23.65881,-14.96161 34.48398,-22.30981 12.48412,-8.48343 27.15165,-24.37503 12.62535,-37.9895 14.5949,1.80288 13.09259,24.45399 1.07566,31.7024 -12.87805,11.71474 -23.37158,26.31101 -37.57783,36.4172 -8.39477,6.22332 -19.40941,-11.17008 -21.01356,-6.75024 1.02194,10.36803 -6.66047,20.25889 -17.65536,18.83195 -18.32356,1.43013 -36.79313,1.31059 -55.1401,0.85443 l -1.4641,-0.26911 -1.44495,-0.38907 0,0 z m 65.00392,-5.05009 c 9.81834,-5.83541 10.11565,-22.22404 -0.0685,-27.92882 -23.3035,-23.62577 -46.4332,-47.42194 -69.62748,-71.15471 0.39198,31.2963 0.78397,62.59259 1.17595,93.88889 10.42815,9.98197 26.24201,4.05984 39.10504,6.29387 9.80659,0.22076 19.70882,0.63476 29.41495,-1.09923 z M 311.84777,617.1745 c 13.24478,-9.47128 4.2594,-27.96091 7.35215,-41.46666 0.35357,-24.82875 0.57966,-49.65905 0.8725,-74.48854 -22.30464,23.00769 -45.59373,45.095 -66.68749,69.25 3.45335,16.62646 20.64501,24.85374 30.07906,37.82459 6.87936,8.25867 18.07663,19.40775 28.38378,8.88061 z m 164.67909,-69.10387 c 9.64731,-12.17212 3.03512,-28.67362 5.33837,-42.79436 -1.71727,-10.20413 5.49751,-25.69424 -7.06651,-30.61521 -10.75107,-5.47348 -20.56729,-0.38634 -27.03399,8.66608 -22.17648,21.53898 -44.68875,42.76508 -65.76471,65.40023 24.79567,2.34026 49.75089,-0.22663 74.60691,0.0679 6.6428,-0.15086 13.285,-0.3621 19.91993,-0.72464 z M 433.6109,490.7193 c 10.90908,-11.86041 23.06469,-22.59782 32.96536,-35.36581 -2.77662,-13.97408 -16.86478,-20.92303 -25.04901,-31.47774 -6.34241,-6.38804 -12.68482,-12.77608 -19.02723,-19.16412 -14.82529,-2.06861 -23.83472,12.72467 -20.56851,25.84724 -0.29606,29.80106 -1.17713,59.60455 -0.57077,89.40764 11.22741,-2.7601 18.59558,-18.17405 28.58318,-25.4811 l 1.83418,-1.88239 1.8328,-1.88372 0,0 z m -36.9402,-44.89811 c -2.50681,-15.48587 4.07028,-35.91305 -5.03527,-48.14704 -13.54131,-5.01086 -28.41276,-0.75919 -42.53327,-2.37285 -11.28252,-0.39686 -28.58329,-3.12237 -27.60801,13.51507 0.47826,11.36537 12.75438,16.19443 18.66695,24.70073 18.19363,19.08856 36.43831,38.15721 55.75188,56.12583 2.4606,-14.47241 0.30455,-29.23139 0.75772,-43.82174 z m -29.95568,23.27174 c -19.17641,-21.06113 -39.83923,-40.705 -60.86116,-59.90266 -17.95706,-0.73656 -25.57033,20.1676 -38.75394,29.1322 -13.88701,6.46934 -19.34557,30.37785 1.0551,30.69835 31.90464,0.88538 63.9173,0.042 95.84929,1.45167 1.01735,-0.29929 2.00721,-0.51657 2.71071,-1.37956 z"
         id="path3032"
         inkscape:connector-curvature="0" />
      <path
         style="fill:#000000"
         d="m 408.47066,622.60309 c -20.70448,-22.1904 -42.8706,-43.01638 -63.76521,-65.05446 -5.88974,-8.22291 -19.79276,-16.30663 -20.15031,-25.13765 7.60721,7.68276 14.99411,15.66248 22.94374,23.10037 21.74626,21.52759 43.34067,43.2336 66.0618,63.74346 15.50476,6.56729 23.65939,-14.96145 34.48465,-22.30995 12.48412,-8.48343 27.15165,-24.37503 12.62535,-37.9895 14.5949,1.80288 13.09259,24.45399 1.07566,31.7024 -13.1279,11.63057 -23.40938,27.07522 -38.21089,36.45056 -5.3631,1.65582 -11.68153,0.17835 -15.06479,-4.50523 z m 26.02936,-68.94215 c -28.74333,-1.2582 -57.64404,0.30543 -86.29909,-2.14133 -8.56044,-1.42777 -7.62144,-27.97221 -5.95606,-11.20569 0.0278,10.40241 22.28236,14.8844 21.7585,5.78562 -4.67996,-3.6072 -14.15307,-17.73105 -4.27236,-6.21042 4.93898,10.82146 29.45544,8.06737 24.16517,-3.25944 -3.96592,-1.36032 -24.1037,-0.81965 -9.74881,-2.22252 13.38537,3.32784 31.20178,-8.46446 22.05348,-22.65709 -6.47161,-1.03994 -16.49046,16.66827 -17.63471,11.12518 9.38657,-8.78481 25.2852,-23.61652 9.70291,-34.78881 -10.05713,-10.14275 -6.47848,20.8976 -8.53927,4.86996 2.11151,-15.16621 -11.08725,-22.8789 -24.7047,-19.14558 -36.24398,0.42062 -72.50377,0.4293 -108.72276,2.0033 -10.42311,12.19163 -3.64084,29.70354 -5.89971,44.22375 -2.81215,13.46944 0.0228,32.44984 17.75062,30.17145 12.75177,3.85456 -17.92019,7.58336 -18.9578,-2.40748 -7.43391,-10.69305 -2.80871,-24.12708 -4.71953,-36.19085 -0.41732,-12.03966 -1.2025,-24.43624 1.60294,-36.19366 5.06057,-6.60209 22.98302,-5.27958 12.37474,-16.89313 -0.68079,-16.1236 16.87401,-24.28489 25.35622,-35.88679 10.4021,-6.77599 17.26473,-27.18983 31.97598,-20.86632 7.25099,3.69312 12.22397,7.74689 12.70284,-3.05888 11.18651,-14.40745 31.93871,-7.2573 47.55565,-9.55218 12.79563,0.38909 35.21902,-4.53348 36.12997,14.18805 4.52325,8.32388 13.80345,-10.23898 21.70063,-1.5374 13.41797,9.57789 24.33784,22.30204 36.80105,33.11603 12.91486,8.82649 14.04631,22.76808 4.74152,33.8362 14.80371,-0.79663 23.91575,12.38685 20.97941,26.96754 -1.06841,16.88785 2.10528,35.64643 -1.39413,51.36208 -9.50428,12.42569 -27.3099,4.62632 -40.69927,6.8772 -3.26922,-0.0474 -6.53805,-0.14293 -9.80343,-0.30879 z m 42.02684,-5.59031 c 9.64731,-12.17212 3.03512,-28.67362 5.33837,-42.79436 -1.71727,-10.20413 5.49751,-25.69424 -7.06651,-30.61521 -10.75107,-5.47348 -20.56729,-0.38634 -27.03399,8.66608 -22.17648,21.53898 -44.68875,42.76508 -65.76471,65.40023 24.79567,2.34026 49.75089,-0.22663 74.60691,0.0679 6.6428,-0.15086 13.285,-0.3621 19.91993,-0.72464 z M 433.6109,490.7193 c 10.90908,-11.86041 23.06469,-22.59782 32.96536,-35.36581 -2.77662,-13.97408 -16.86478,-20.92303 -25.04901,-31.47774 -6.34241,-6.38804 -12.68482,-12.77608 -19.02723,-19.16412 -14.82529,-2.06861 -23.83472,12.72467 -20.56851,25.84724 -0.29606,29.80106 -1.17713,59.60455 -0.57077,89.40764 11.22741,-2.7601 18.59558,-18.17405 28.58318,-25.4811 l 1.83418,-1.88239 1.8328,-1.88372 0,0 z m -36.9402,-44.89811 c -2.50681,-15.48587 4.07028,-35.91305 -5.03527,-48.14704 -13.54131,-5.01086 -28.41276,-0.75919 -42.53327,-2.37285 -11.28252,-0.39686 -28.58329,-3.12237 -27.60801,13.51507 0.47826,11.36537 12.75438,16.19443 18.66695,24.70073 18.19363,19.08856 36.43831,38.15721 55.75188,56.12583 2.4606,-14.47241 0.30455,-29.23139 0.75772,-43.82174 z m -29.95568,23.27174 c -19.17641,-21.06113 -39.83923,-40.705 -60.86116,-59.90266 -17.95706,-0.73656 -25.57033,20.1676 -38.75394,29.1322 -13.88701,6.46934 -19.34557,30.37785 1.0551,30.69835 31.90464,0.88538 63.9173,0.042 95.84929,1.45167 1.01735,-0.29929 2.00721,-0.51657 2.71071,-1.37956 z m -43.715,57.66001 c -1.12593,-6.29332 16.44789,-18.19921 5.60999,-6.96207 -2.24482,2.02736 -2.77914,5.52198 -5.60999,6.96207 z"
         id="path3030"
         inkscape:connector-curvature="0" />
      <path
         style="fill:#000000"
         d="m 242.2127,551.58062 c -11.85789,-11.77951 -5.32548,-30.18952 -7.70712,-45.01233 0.21749,-11.93755 -4.63694,-32.40299 10.46901,-36.76089 15.96731,-0.83186 -4.65302,-16.47538 7.05311,-24.09532 13.90254,-15.53263 28.87202,-30.12944 43.47232,-45.03718 9.66943,-4.27222 22.72384,14.49601 22.9886,-1.96269 11.18047,-14.40204 31.92345,-7.26172 47.53431,-9.55174 14.84005,-1.48889 38.97369,-1.81644 36.99156,19.43361 -1.83433,39.5042 -1.52799,79.08339 -2.09751,118.62522 -3.47232,3.4684 -6.94464,6.93681 -10.41696,10.40521 -6.27421,-1.64613 -21.74267,-1.0545 -22.18515,-3.07577 11.38566,-0.73455 31.67497,2.22403 29.92008,-15.31315 0.45814,-20.56191 -18.27675,9.70748 -19.49706,3.4539 8.55388,-7.97309 25.38306,-23.62331 10.00168,-33.72314 -9.64365,-13.95491 -7.63629,23.61174 -8.95961,4.02903 1.38477,-13.22092 -8.15575,-23.53373 -21.51362,-19.22186 -37.32415,0.44935 -74.66493,0.42952 -111.96402,2.0406 -10.42311,12.19163 -3.64084,29.70354 -5.89971,44.22375 -2.82497,13.4999 0.0455,32.44923 17.78521,30.18045 16.48613,3.60709 -15.97567,4.86852 -15.97512,1.3623 z m 154.458,-105.75943 c -2.50681,-15.48587 4.07028,-35.91305 -5.03527,-48.14704 -13.54131,-5.01086 -28.41276,-0.75919 -42.53327,-2.37285 -11.28252,-0.39686 -28.58329,-3.12237 -27.60801,13.51507 0.47826,11.36537 12.75438,16.19443 18.66695,24.70073 18.19363,19.08856 36.43831,38.15721 55.75188,56.12583 2.4606,-14.47241 0.30455,-29.23139 0.75772,-43.82174 z m -29.95568,23.27174 c -19.17641,-21.06113 -39.83923,-40.705 -60.86116,-59.90266 -17.95706,-0.73656 -25.57033,20.1676 -38.75394,29.1322 -13.88701,6.46934 -19.34557,30.37785 1.0551,30.69835 31.90464,0.88538 63.9173,0.042 95.84929,1.45167 1.03534,-0.30893 1.98854,-0.50458 2.71071,-1.37956 z m 54.26969,37.06004 c 11.1188,-11.75773 22.29607,-23.4835 34.22142,-34.43367 -8.27869,12.81602 -21.32669,21.51682 -31.70756,32.51526 l -1.22755,1.08335 -1.28631,0.83506 z m 37.86024,-39.18367 c 14.86239,-7.8692 6.83511,-26.16684 -4.86698,-32.43323 -11.25193,-10.87863 -21.27351,-23.67769 -34.59518,-31.99433 -4.76784,-0.15838 -16.77025,6.7414 -5.95478,0.0681 16.68381,-2.7408 25.12866,16.74637 36.9762,25.10339 8.55971,8.37054 29.31874,21.93249 16.28429,34.7061 -0.41296,0.77294 -10.15459,10.8119 -7.84355,4.55001 z"
         id="path3028"
         inkscape:connector-curvature="0" />
      <path
         style="fill:#000000"
         d="m 244.07111,551.98791 c -13.27807,-8.98542 -7.22941,-27.39295 -8.99615,-40.86743 1.82068,-13.41331 -6.39331,-36.11845 11.20457,-40.98022 14.88867,-0.82464 29.8714,-0.009 44.82567,-0.0974 26.41672,0.25368 52.84589,0.36248 79.23742,1.66488 -26.20249,3.14255 -52.6864,1.57923 -79.01226,2.48844 -15.43146,0.0778 -30.88794,0.13327 -46.27158,1.49163 -9.66032,12.8775 -3.03999,30.11556 -4.81091,44.89234 -2.4573,12.76561 -0.71459,32.24405 16.78544,30.06458 16.8268,2.41075 -11.60516,4.28466 -12.9622,1.34314 z m 136.42891,-15.64444 c -16.68763,-2.36605 8.94308,-0.96123 13.10684,-4.58201 7.55317,-9.41571 1.86665,-23.91194 3.66348,-35.3954 -0.0869,-31.99271 -0.89759,-63.97685 -1.50769,-95.96224 -10.19687,-8.77773 -24.82538,-3.49787 -36.99941,-5.57126 -11.37637,2.7919 -32.24274,-6.8936 -36.01984,8.41381 0.45297,5.90978 -5.54408,14.8106 -6.02301,3.58018 -0.1067,-15.55439 17.0105,-18.53586 29.12996,-17.11294 15.34678,-0.58411 30.73652,-1.12642 46.07328,-0.0149 15.73331,6.30721 10.15413,25.92799 10.27624,39.06571 -0.83977,32.81188 -0.88643,65.6364 -1.29629,98.45485 -5.12803,5.58123 -11.97614,13.60161 -20.40356,9.12417 z m 40.48469,-30.1905 c 11.1188,-11.75773 22.29607,-23.4835 34.22142,-34.43367 -8.27869,12.81602 -21.32669,21.51682 -31.70756,32.51526 l -1.22755,1.08335 -1.28631,0.83506 z M 380.19497,485.2193 c 0.34863,-6.61201 0.97792,5.42018 0,0 z m 78.64998,-18.25 c 14.86239,-7.8692 6.83511,-26.16684 -4.86698,-32.43323 -11.25193,-10.87863 -21.27351,-23.67769 -34.59518,-31.99433 -4.76784,-0.15838 -16.77025,6.7414 -5.95478,0.0681 16.68381,-2.7408 25.12866,16.74637 36.9762,25.10339 8.55971,8.37054 29.31874,21.93249 16.28429,34.7061 -0.41296,0.77294 -10.15459,10.8119 -7.84355,4.55001 z"
         id="path3026"
         inkscape:connector-curvature="0" />
      <path
         style="fill:#000000"
         d="m 380.50002,536.34347 c -16.68763,-2.36605 8.94308,-0.96123 13.10684,-4.58201 7.55317,-9.41571 1.86665,-23.91194 3.66348,-35.3954 -0.0869,-31.99271 -0.89759,-63.97685 -1.50769,-95.96224 -10.19687,-8.77773 -24.82538,-3.49787 -36.99941,-5.57126 -11.37637,2.7919 -32.24274,-6.8936 -36.01984,8.41381 0.45297,5.90978 -5.54408,14.8106 -6.02301,3.58018 -0.1067,-15.55439 17.0105,-18.53586 29.12996,-17.11294 15.34678,-0.58411 30.73652,-1.12642 46.07328,-0.0149 15.73331,6.30721 10.15413,25.92799 10.27624,39.06571 -0.83977,32.81188 -0.88643,65.6364 -1.29629,98.45485 -5.12803,5.58123 -11.97614,13.60161 -20.40356,9.12417 z m 40.48469,-30.1905 c 11.1188,-11.75773 22.29607,-23.4835 34.22142,-34.43367 -8.27869,12.81602 -21.32669,21.51682 -31.70756,32.51526 l -1.22755,1.08335 -1.28631,0.83506 z m 37.86024,-39.18367 c 14.86239,-7.8692 6.83511,-26.16684 -4.86698,-32.43323 -11.25193,-10.87863 -21.27351,-23.67769 -34.59518,-31.99433 -4.76784,-0.15838 -16.77025,6.7414 -5.95478,0.0681 16.68381,-2.7408 25.12866,16.74637 36.9762,25.10339 8.55971,8.37054 29.31874,21.93249 16.28429,34.7061 -0.66517,0.92405 -9.77833,10.63556 -7.84355,4.55001 z"
         id="path3024"
         inkscape:connector-curvature="0" />
    </g>
  </g>
</svg>
